#!OML:ASF F:\VICON\USERDATA\INSTALL\rory3\rory3.ASF
:FULLY-SPECIFIED
:DEGREES
241
root -2.94608 16.0945 19.3552 -51.7005 37.2406 -203.828
lowerback 14.1906 2.86899 15.8043
upperback -4.26431 7.11075 13.8634
thorax -12.9835 2.36284 5.37351
lowerneck -21.2759 -1.22824 -10.5067
upperneck -6.61718 1.33154 3.20576
head 1.16284 1.27285 2.76313
rclavicle 6.20208e-014 7.95139e-016
rhumerus 81.3337 -17.0382 -19.4958
rradius 41.4057
rwrist 23.1196
rhand -34.0908 97.9974
rfingers 7.12502
rthumb -7.26726 -1312.15
lclavicle 6.20208e-014 7.95139e-016
lhumerus 70.821 40.9055 31.5414
lradius 34.1478
lwrist 1.12893
lhand -49.0607 -85.3998
lfingers 7.12502
lthumb -21.6873 -56.5946
rfemur -95.7391 -32.216 -26.1195
rtibia 48.2672
rfoot -5.86606 -36.674
rtoes 1.98622
lfemur -0.0403874 7.6404 3.82265
ltibia 93.2841
lfoot -6.40845 5.03624
ltoes -2.8469
242
root -2.90818 16.1513 19.0822 -51.2957 39.0582 -204.508
lowerback 13.4223 2.96421 15.4182
upperback -4.36707 7.01118 13.9322
thorax -12.6889 2.37655 5.69844
lowerneck -22.2269 -1.49351 -10.8406
upperneck -6.57381 1.20161 2.90789
head 1.30724 1.22347 2.71929
rclavicle -1.66184e-013 -6.2816e-014
rhumerus 81.319 -17.602 -19.1952
rradius 41.3855
rwrist 23.7433
rhand -33.851 98.7948
rfingers 7.12502
rthumb -7.0357 -1311.34
lclavicle -1.66184e-013 -6.2816e-014
lhumerus 69.0079 40.8644 30.4927
lradius 34.7886
lwrist 0.973239
lhand -48.9763 -88.4471
lfingers 7.12502
lthumb -21.6062 -59.6325
rfemur -96.9447 -33.213 -23.7954
rtibia 53.1134
rfoot -2.49038 -35.1424
rtoes 0.811776
lfemur -0.961327 7.02553 5.04341
ltibia 92.5153
lfoot -7.57876 6.25177
ltoes 2.50407
243
root -2.86364 16.2012 18.8543 -51.0633 40.7596 -205.345
lowerback 12.5712 3.05933 15.1864
upperback -4.36506 6.8915 14.2401
thorax -12.2383 2.38514 6.22703
lowerneck -23.8436 -2.11066 -12.5247
upperneck -5.95835 1.05949 3.47322
head 1.70237 1.20884 3.16181
rclavicle 5.48646e-014 -6.99722e-014
rhumerus 81.4474 -18.2684 -18.1919
rradius 41.4779
rwrist 24.1469
rhand -33.6296 98.7442
rfingers 7.12502
rthumb -6.82198 -1311.39
lclavicle 5.48646e-014 -6.99722e-014
lhumerus 66.3622 40.7684 28.8244
lradius 35.9007
lwrist 1.759
lhand -49.9616 91.0186
lfingers 7.12502
lthumb -22.5522 -62.3158
rfemur -97.6431 -34.1427 -21.5221
rtibia 57.5924
rfoot -3.21356 -33.8819
rtoes 2.26497
lfemur -1.91309 6.58202 6.67077
ltibia 91.2552
lfoot -9.05346 6.78224
ltoes 7.55966
244
root -2.82859 16.242 18.6055 -50.7779 42.495 -206.022
lowerback 12.7205 2.45306 15.8082
upperback -4.85497 6.43967 13.6349
thorax -12.7858 2.10977 5.30215
lowerneck -25.0392 -2.33052 -13.7788
upperneck -5.01424 1.25788 5.26577
head 2.12996 1.38345 3.96168
rclavicle -9.54166e-015 -1.55052e-013
rhumerus 81.481 -18.027 -18.9159
rradius 41.4936
rwrist 24.6936
rhand -33.9896 98.3558
rfingers 7.12502
rthumb -7.16954 -1311.79
lclavicle -9.54166e-015 -1.55052e-013
lhumerus 62.807 39.9322 24.5911
lradius 37.3673
lwrist 3.34682
lhand -51.0373 93.3559
lfingers 7.12502
lthumb -23.5844 -64.7822
rfemur -97.3699 -34.8621 -19.8205
rtibia 61.314
rfoot -5.79794 -33.5994
rtoes 6.81477
lfemur -3.07363 6.43996 7.63838
ltibia 89.5173
lfoot -10.124 7.57736
ltoes 8.08629
245
root -2.79392 16.289 18.3811 -50.0394 44.3338 -206.053
lowerback 11.1354 3.17431 14.3724
upperback -4.57508 6.64444 14.3451
thorax -11.7084 2.38366 6.86928
lowerneck -27.0565 -3.15717 -15.5858
upperneck -4.22023 1.09921 5.00051
head 2.59819 1.32386 4.1546
rclavicle -6.67916e-014 5.725e-014
rhumerus 80.8149 -19.239 -15.9529
rradius 42.0211
rwrist 24.4227
rhand -34.063 98.3376
rfingers 7.12502
rthumb -7.24041 -1311.81
lclavicle -6.67916e-014 5.725e-014
lhumerus 61.7656 39.642 25.7857
lradius 38.5466
lwrist 4.28367
lhand -51.1218 95.8977
lfingers 7.12502
lthumb -23.6654 -67.3343
rfemur -97.1145 -35.3938 -18.6001
rtibia 64.3152
rfoot -5.73295 -33.4261
rtoes 12.9638
lfemur -4.12277 6.46482 7.94545
ltibia 87.2987
lfoot -11.0287 8.24279
ltoes 5.95447
246
root -2.76956 16.3147 18.1157 -48.8516 46.037 -205.683
lowerback 10.1427 3.47528 13.7445
upperback -4.6752 6.71386 14.4101
thorax -11.2924 2.47707 7.29491
lowerneck -28.0411 -3.51615 -16.5825
upperneck -3.76534 1.15457 4.94233
head 2.84717 1.35555 4.30008
rclavicle -5.1684e-014 6.36111e-015
rhumerus 80.3784 -19.6787 -14.0908
rradius 42.1669
rwrist 23.8247
rhand -33.8082 98.7379
rfingers 7.12502
rthumb -6.99446 -1311.4
lclavicle -5.1684e-014 6.36111e-015
lhumerus 59.6573 38.6931 24.8183
lradius 40.3771
lwrist 5.78012
lhand -50.912 97.5126
lfingers 7.12502
lthumb -23.4641 -68.9234
rfemur -96.3955 -35.6227 -17.714
rtibia 66.4709
rfoot -5.13018 -33.956
rtoes 17.9472
lfemur -5.17152 6.78863 7.73097
ltibia 84.5231
lfoot -11.8271 8.80306
ltoes 4.74884
247
root -2.75541 16.3222 17.8388 -47.1686 47.582 -205.035
lowerback 8.79279 3.86337 13.3506
upperback -4.84882 6.84424 14.4675
thorax -10.723 2.57224 7.59649
lowerneck -28.9871 -4.12312 -18.3772
upperneck -3.17629 1.14402 5.47226
head 3.13309 1.38449 4.75557
rclavicle -1.60618e-013 -8.11041e-014
rhumerus 80.0193 -19.9325 -11.9992
rradius 42.1118
rwrist 23.2773
rhand -33.7087 99.2871
rfingers 7.12502
rthumb -6.8984 -1310.85
lclavicle -1.60618e-013 -8.11041e-014
lhumerus 59.3838 38.0084 26.1941
lradius 41.0061
lwrist 5.33386
lhand -50.3195 98.1534
lfingers 7.12502
lthumb -22.8957 -69.4927
rfemur -95.8305 -35.9099 -16.5339
rtibia 68.0459
rfoot -7.99015 -32.2815
rtoes 12.4325
lfemur -6.29341 7.7232 7.48444
ltibia 81.3585
lfoot -12.9814 8.71852
ltoes 5.25228
248
root -2.74558 16.3094 17.5492 -45.3248 48.8795 -204.339
lowerback 7.35523 4.24193 13.3941
upperback -5.06735 6.99489 14.3458
thorax -10.0784 2.63129 7.46126
lowerneck -29.8142 -4.66319 -19.7461
upperneck -2.69364 1.08248 6.01612
head 3.38168 1.38752 5.14674
rclavicle -2.63191e-013 4.77083e-015
rhumerus 79.5318 -20.1432 -10.2632
rradius 41.9453
rwrist 22.9716
rhand -33.6435 99.8815
rfingers 7.12502
rthumb -6.83547 -1310.25
lclavicle -2.63191e-013 4.77083e-015
lhumerus 58.799 37.11 27.1187
lradius 42.3066
lwrist 4.6732
lhand -48.9362 95.9243
lfingers 7.12502
lthumb -21.5677 -67.1052
rfemur -95.1583 -36.013 -15.3282
rtibia 69.1417
rfoot -9.44088 -31.2445
rtoes 8.6352
lfemur -7.45968 9.21878 7.34147
ltibia 77.9679
lfoot -14.221 8.18534
ltoes 6.10176
249
root -2.73087 16.3082 17.293 -43.7194 49.7883 -203.903
lowerback 6.13494 4.56541 13.8046
upperback -5.39173 7.17711 14.1383
thorax -9.63711 2.66687 7.03842
lowerneck -30.4559 -5.00279 -20.3437
upperneck -2.17105 0.986011 6.30171
head 3.63475 1.33799 5.33109
rclavicle 2.49674e-013 -2.70347e-014
rhumerus 78.9265 -20.1294 -8.97983
rradius 41.6948
rwrist 22.5408
rhand -33.3287 100.294
rfingers 7.12502
rthumb -6.5315 -1309.83
lclavicle 2.49674e-013 -2.70347e-014
lhumerus 58.283 36.0675 27.548
lradius 43.4517
lwrist 3.8309
lhand -48.6836 95.2605
lfingers 7.12502
lthumb -21.3251 -66.4138
rfemur -94.1477 -35.67 -14.1302
rtibia 69.8623
rfoot -11.141 -30.6413
rtoes 6.80431
lfemur -8.69135 11.1475 7.78259
ltibia 74.5809
lfoot -14.8067 8.35584
ltoes 4.60435
250
root -2.72025 16.3295 17.0785 -41.6994 50.9746 -202.822
lowerback 4.94177 4.80938 13.5719
upperback -5.71613 7.23432 13.7517
thorax -9.25157 2.69123 6.77282
lowerneck -31.4231 -5.50784 -21.1885
upperneck -1.13902 0.795499 7.16098
head 4.1107 1.25123 5.74983
rclavicle -5.725e-014 -8.5875e-014
rhumerus 78.3101 -19.9336 -7.9869
rradius 41.4004
rwrist 22.0543
rhand -33.3653 100.451
rfingers 7.12502
rthumb -6.56688 -1309.67
lclavicle -5.725e-014 -8.5875e-014
lhumerus 58.0053 35.0179 27.7939
lradius 44.0349
lwrist 2.44733
lhand -49.2947 96.4101
lfingers 7.12502
lthumb -21.912 -67.6309
rfemur -93.0411 -35.3021 -13.4045
rtibia 70.3062
rfoot -12.9638 -29.8737
rtoes 8.85144
lfemur -9.89539 13.2494 7.76183
ltibia 71.2015
lfoot -15.0835 9.31838
ltoes 1.48401
251
root -2.71472 16.3551 16.8642 -38.7888 52.6024 -200.781
lowerback 3.56077 4.97816 12.7388
upperback -5.99952 7.14408 13.0675
thorax -8.72207 2.6925 6.5112
lowerneck -31.4659 -5.15922 -20.0096
upperneck -1.42903 0.893982 6.23725
head 4.01315 1.2494 5.26237
rclavicle -1.41535e-013 -8.11041e-014
rhumerus 77.7103 -19.8247 -7.19364
rradius 41.0902
rwrist 21.639
rhand -32.9228 100.28
rfingers 7.12502
rthumb -6.13966 -1309.83
lclavicle -1.41535e-013 -8.11041e-014
lhumerus 57.2648 33.9741 27.0879
lradius 44.5909
lwrist 0.832907
lhand -49.3043 96.2899
lfingers 7.12502
lthumb -21.9212 -67.5118
rfemur -92.2215 -35.2269 -13.2052
rtibia 70.6522
rfoot -13.9086 -29.094
rtoes 11.505
lfemur -11.2292 15.2582 6.74785
ltibia 67.8148
lfoot -15.7368 9.84517
ltoes -0.126237
252
root -2.70766 16.3784 16.6397 -35.7756 54.0675 -198.768
lowerback 2.30295 5.2185 11.8661
upperback -6.42543 7.20368 12.4756
thorax -8.45759 2.75316 6.38055
lowerneck -31.9003 -5.24684 -20.0628
upperneck -1.14721 0.878687 6.50042
head 4.16096 1.25001 5.36644
rclavicle 6.12257e-014 5.08889e-014
rhumerus 76.8918 -19.6505 -6.04509
rradius 40.8564
rwrist 21.2532
rhand -30.8304 99.6858
rfingers 7.12502
rthumb -4.11932 -1310.37
lclavicle 6.12257e-014 5.08889e-014
lhumerus 56.2451 32.8837 25.5856
lradius 44.9441
lwrist 0.344186
lhand -48.8955 96.7346
lfingers 7.12502
lthumb -21.5287 -67.9111
rfemur -91.6462 -35.1474 -12.7935
rtibia 71.0865
rfoot -14.149 -28.6585
rtoes 13.3413
lfemur -12.8834 17.1542 5.70954
ltibia 64.5662
lfoot -16.4225 9.99274
ltoes -0.87258
